<svg width="80" height="80" viewBox="0 0 80 80" fill="none" xmlns="http://www.w3.org/2000/svg">
<path d="M8.18024 26.4649C9.11788 25.5276 10.3894 25.001 11.7152 25.001C13.0411 25.001 14.3126 25.5276 15.2502 26.4649L40.0002 51.2149L64.7502 26.4649C65.6933 25.5541 66.9563 25.0501 68.2673 25.0615C69.5782 25.0729 70.8323 25.5988 71.7593 26.5258C72.6864 27.4529 73.2122 28.7069 73.2236 30.0179C73.235 31.3289 72.731 32.5919 71.8202 33.5349L43.5352 61.8199C42.5976 62.7573 41.3261 63.2838 40.0002 63.2838C38.6744 63.2838 37.4029 62.7573 36.4652 61.8199L8.18024 33.5349C7.24289 32.5973 6.71631 31.3257 6.71631 29.9999C6.71631 28.6741 7.24289 27.4025 8.18024 26.4649Z" fill="#222831"/>
</svg>
