<svg width="14" height="13" viewBox="0 0 14 13" fill="none" xmlns="http://www.w3.org/2000/svg">
<path d="M4.78951 12.4671C2.40823 12.4534 0.438477 7.59241 0.438477 5.11682C0.438477 1.07295 3.47207 0.187633 4.6412 0.187633C5.16807 0.187633 5.73066 0.394539 6.22688 0.577633C6.57388 0.705351 6.93276 0.837195 7.13235 0.837195C7.25182 0.837195 7.53335 0.725039 7.78191 0.626633C8.31201 0.415602 8.97163 0.15332 9.73976 0.15332C9.74113 0.15332 9.74298 0.15332 9.74432 0.15332C10.3179 0.15332 12.0569 0.279195 13.1025 1.84932L13.3474 2.21735L12.9949 2.48332C12.4914 2.86326 11.5726 3.55632 11.5726 4.92916C11.5726 6.55513 12.6131 7.18045 13.113 7.4812C13.3337 7.61395 13.5621 7.75082 13.5621 8.05019C13.5621 8.24566 12.002 12.4429 9.73654 12.4429C9.1822 12.4429 8.79035 12.2763 8.44473 12.1293C8.09501 11.9805 7.79332 11.8524 7.29482 11.8524C7.04213 11.8524 6.7226 11.9719 6.38432 12.0987C5.92204 12.2712 5.39879 12.4671 4.80507 12.4671H4.78951Z" fill="white"/>
</svg>
